<?xml version="1.0" encoding="UTF-8"?>
<svg version="1.1" xmlns="http://www.w3.org/2000/svg" width="1024" height="1024">
<path d="M0 0 C337.92 0 675.84 0 1024 0 C1024 337.92 1024 675.84 1024 1024 C686.08 1024 348.16 1024 0 1024 C0 686.08 0 348.16 0 0 Z " fill="#FEF9EF" transform="translate(0,0)"/>
<path d="M0 0 C0.33 0 0.66 0 1 0 C2.48218744 6.62432751 3.9610436 13.24939277 5.4375 19.875 C5.77338638 21.38211548 5.77338638 21.38211548 6.11605835 22.91967773 C9.42153897 37.76453953 12.64891228 52.6243057 15.8125 67.5 C18.16249906 78.54332856 20.52503193 89.5744194 23.19970703 100.54467773 C24.94393327 107.69924903 26.57211666 114.87781151 28.1875 122.0625 C28.47206055 123.32626465 28.75662109 124.5900293 29.04980469 125.89208984 C29.67485892 128.66824547 30.29964558 131.4444612 30.92431641 134.22070312 C32.84347893 142.74840706 34.76488984 151.2755902 36.69424438 159.80099487 C37.14735087 161.80543297 37.59948223 163.81009176 38.05062866 165.81497192 C38.68500268 168.63370587 39.32260204 171.45169218 39.9609375 174.26953125 C40.15229782 175.12327332 40.34365814 175.97701538 40.54081726 176.85662842 C41.44004479 181.0390772 41.44004479 181.0390772 43 185 C43.68698975 184.61368408 44.37397949 184.22736816 45.08178711 183.8293457 C53.36564751 179.17898628 61.67207481 174.57094332 70 170 C71.07749512 169.40832031 72.15499023 168.81664062 73.26513672 168.20703125 C89.73536667 159.23040282 106.56513196 151.86313291 124 145 C125.71497681 144.31006958 125.71497681 144.31006958 127.46459961 143.60620117 C134.60300765 140.77581647 141.22344482 138.96912749 148.78515625 137.67578125 C153.04489139 135.45533608 153.62791714 133.29355023 155.12963867 128.86547852 C155.41685791 127.91987061 155.70407715 126.9742627 156 126 C156.44146362 124.63669556 156.44146362 124.63669556 156.8918457 123.24584961 C157.83628514 120.27735438 158.73399757 117.29745105 159.625 114.3125 C163.11776933 102.77946981 166.77278146 91.30614878 170.49853516 79.84692383 C173.07231217 71.91954457 175.57426864 63.97396449 178 56 C178.66 56 179.32 56 180 56 C180.30550781 57.03769531 180.61101562 58.07539063 180.92578125 59.14453125 C184.33171736 70.6344362 187.89442585 82.07159731 191.5 93.5 C197.70711249 113.18583154 197.70711249 113.18583154 200.625 122.875 C200.86025391 123.65166016 201.09550781 124.42832031 201.33789062 125.22851562 C202.40452609 128.80027658 203.29806245 132.34096386 204 136 C204.70817871 136.15855469 205.41635742 136.31710938 206.14599609 136.48046875 C214.23711053 138.38580843 221.87862113 141.00324111 229.625 144 C230.56158447 144.36031311 230.56158447 144.36031311 231.51708984 144.72790527 C236.02081812 146.46161872 240.51301044 148.22346156 245 150 C246.12374023 150.44408203 247.24748047 150.88816406 248.40527344 151.34570312 C271.86208766 160.71147719 294.14109708 172.38173565 316 185 C316.17958252 184.16122314 316.35916504 183.32244629 316.54418945 182.45825195 C317.21946799 179.30542681 317.89528735 176.1527181 318.5713501 173.00006104 C318.97307214 171.12564418 319.37401524 169.25106044 319.77490234 167.37646484 C323.05421477 152.07648146 326.46688559 136.8238646 330.1875 121.625 C330.35993225 120.92048706 330.5323645 120.21597412 330.71002197 119.4901123 C330.88064148 118.79309204 331.05126099 118.09607178 331.22705078 117.37792969 C333.40343572 108.48527992 335.4987991 99.58579133 337.42675781 90.63623047 C338.14585889 87.32922304 338.88196732 84.02611706 339.6171875 80.72265625 C342.42106736 68.09296001 345.16666628 55.4648351 347.5625 42.75 C349.34382104 33.31285162 351.21450212 23.8988844 353.1875 14.5 C353.43765869 13.28151367 353.68781738 12.06302734 353.94555664 10.80761719 C354.18395264 9.68516602 354.42234863 8.56271484 354.66796875 7.40625 C354.98157349 5.91061523 354.98157349 5.91061523 355.30151367 4.38476562 C356 2 356 2 358 0 C359.54343264 12.81119659 360.6377997 25.62689718 361.57476807 38.49551392 C363.18912005 60.5955574 365.09561628 82.65801376 367.24926758 104.71191406 C368.3552068 116.16748102 369.26261983 127.61353989 369.9609375 139.1015625 C370.61130569 149.74597969 371.42258129 160.35707561 372.4375 170.97265625 C372.50075848 171.63476671 372.56401695 172.29687717 372.62919235 172.97905159 C373.07954137 177.67418239 373.53893911 182.3684109 374 187.0625 C376.0244511 207.69354251 377.74773904 228.30720255 379 249 C378.34 249 377.68 249 377 249 C377.77024325 250.41698758 378.54127229 251.83354799 379.3125 253.25 C380.13427734 254.7659375 380.13427734 254.7659375 380.97265625 256.3125 C382.44934692 259.01839129 383.96577191 261.69910315 385.49609375 264.375 C413.74712709 314.13169273 424.84801743 369.10586498 431.51367188 425.30566406 C437.05985151 471.80476104 458.87588579 512.53899733 486 550 C486.58040039 550.80324707 487.16080078 551.60649414 487.75878906 552.43408203 C493.0440559 559.72751419 498.36032061 566.9846551 503.9921875 574.015625 C504.641875 574.8307959 505.2915625 575.6459668 505.9609375 576.48583984 C507.20764721 578.04200071 508.46499444 579.58971753 509.734375 581.12744141 C510.29382813 581.82530762 510.85328125 582.52317383 511.4296875 583.2421875 C511.92710449 583.8491748 512.42452148 584.45616211 512.93701172 585.08154297 C514.27994838 587.50524446 514.19345815 589.27218134 514 592 C514.99 592.33 515.98 592.66 517 593 C512.91879346 599.58802593 508.32114991 605.19041382 502.9375 610.75 C502.24333984 611.47832031 501.54917969 612.20664062 500.83398438 612.95703125 C497.27007817 616.68677924 493.66096594 620.36570777 490 624 C488.88625 625.1446875 488.88625 625.1446875 487.75 626.3125 C471.99997501 641.70456987 454.02934581 653.07010856 435 664 C434.24138672 664.43940918 433.48277344 664.87881836 432.70117188 665.33154297 C411.19007717 677.67609563 387.31956677 686.73286262 364 695 C363.20239258 695.28423828 362.40478516 695.56847656 361.58300781 695.86132812 C352.55071881 699.05281381 343.41658612 701.80985026 334.1875 704.375 C333.2495459 704.63821045 332.3115918 704.9014209 331.34521484 705.17260742 C330.46172363 705.41213135 329.57823242 705.65165527 328.66796875 705.8984375 C327.88703857 706.11161621 327.1061084 706.32479492 326.30151367 706.54443359 C323.81586402 707.03644826 321.52752555 707.07880179 319 707 C319.37511719 706.5153125 319.75023437 706.030625 320.13671875 705.53125 C328.94991837 693.98751246 335.68828694 681.69011604 339.47265625 667.62109375 C339.68451065 666.84512344 339.89636505 666.06915314 340.11463928 665.26966858 C342.36160224 656.89092019 344.17212738 648.4282756 345.9375 639.9375 C350.82019781 616.57669094 356.55239443 593.4948069 362.9375 570.5 C363.52576087 568.36859174 364.11365166 566.2370813 364.70117188 564.10546875 C364.99263092 563.05029053 365.28408997 561.9951123 365.5843811 560.90795898 C366.16891435 558.79066453 366.75207643 556.67299104 367.33383179 554.55493164 C368.83345723 549.11753739 370.37900322 543.69927616 372.00048828 538.296875 C377.34480749 520.34080161 377.91530745 508.02271697 372.4375 490.125 C371.97685309 488.57376815 371.51772131 487.02208561 371.06005859 485.4699707 C369.93327966 481.66452009 368.78653086 477.86551727 367.62994385 474.06903076 C366.72000529 471.08036618 365.81973238 468.08879593 364.91796875 465.09765625 C363.06482429 458.97782179 361.19779709 452.86218165 359.30371094 446.75488281 C358.69296139 444.7770009 358.09593495 442.79489587 357.5 440.8125 C357.1803125 439.76707031 356.860625 438.72164062 356.53125 437.64453125 C355.98244073 434.91259097 356.24045127 433.61355709 357 431 C362.13835541 437.05937269 365.76850982 442.98908995 368.8125 450.3125 C369.23136475 451.29524902 369.65022949 452.27799805 370.08178711 453.29052734 C373.85112956 462.29729415 377.09127994 471.47898393 380.30859375 480.6940918 C382.91456304 488.11175321 385.70128949 495.40425937 388.8125 502.625 C389.16127197 503.43469238 389.51004395 504.24438477 389.86938477 505.07861328 C390.54521924 506.61827334 391.23441987 508.152145 391.93774414 509.67944336 C392.68257456 511.30656659 393.39251824 512.94989949 394.07592773 514.60375977 C396.99618566 521.22526768 400.16838042 524.22331067 406.4375 527.6875 C408.14572683 528.69761092 409.85135385 529.71212822 411.5546875 530.73046875 C412.44510742 531.25688965 413.33552734 531.78331055 414.25292969 532.32568359 C418.97728105 535.20513628 423.5113768 538.35650243 428.0625 541.5 C429.92550421 542.77774778 431.78878289 544.05509547 433.65234375 545.33203125 C434.5532373 545.95029785 435.45413086 546.56856445 436.38232422 547.20556641 C453.44360149 558.90118177 470.86765021 569.72098903 489 579.6875 C489.93811523 580.20505859 490.87623047 580.72261719 491.84277344 581.25585938 C492.7196582 581.73216797 493.59654297 582.20847656 494.5 582.69921875 C495.2734375 583.12033936 496.046875 583.54145996 496.84375 583.9753418 C498.89700125 584.9510546 500.78019598 585.53995823 503 586 C502.23300781 585.46375 501.46601562 584.9275 500.67578125 584.375 C486.00453824 574.04393385 471.53830422 563.32190431 457.96875 551.5703125 C455.91919331 549.79582789 453.86276727 548.04053314 451.78125 546.3046875 C444.52971581 540.2534594 437.4846537 534.02625171 430.63818359 527.51953125 C429.00907976 526.00842212 427.3355537 524.56617327 425.64453125 523.125 C415.39285924 514.10424741 410.9169722 503.53601901 406 491 C405.43013187 489.56746667 404.85962148 488.13518871 404.28857422 486.703125 C398.47075767 472.07754068 392.7441054 457.41336791 387.76953125 442.4765625 C387.51992142 441.7304068 387.27031158 440.9842511 387.01313782 440.21548462 C385.84317333 436.70551841 384.69693442 433.19040998 383.58813477 429.66064453 C382.98376587 427.80995361 382.98376587 427.80995361 382.3671875 425.921875 C382.02800293 424.84518555 381.68881836 423.76849609 381.33935547 422.65917969 C379.05813827 418.13001132 374.92738899 416.84572271 370.40234375 415.0546875 C369.52739258 414.7040625 368.65244141 414.3534375 367.75097656 413.9921875 C366.8225293 413.62351562 365.89408203 413.25484375 364.9375 412.875 C353.49522071 408.26891642 342.03907161 403.51953581 331 398 C324.28395115 397.4891596 319.15503232 398.97395279 312.875 401.25 C300.00999447 405.80554147 286.98301066 409.3682219 273.6875 412.4375 C273.04215302 412.58718231 272.39680603 412.73686462 271.73190308 412.89108276 C259.9934409 415.60945781 248.21291946 418.06762478 236.38134766 420.34667969 C233.27970735 420.9459569 230.1796798 421.55301829 227.08018494 422.1632843 C224.31515236 422.70738129 221.54959078 423.24875419 218.78390503 423.78952026 C216.82000242 424.17380244 214.85640644 424.55965064 212.89282227 424.94555664 C207.00764573 426.08814816 201.11682811 427.19045243 195.203125 428.17578125 C194.24567383 428.33602783 193.28822266 428.49627441 192.30175781 428.66137695 C187.88954568 429.11388643 183.43535576 429 179 429 C179 452.43 179 475.86 179 500 C173.72 501.32 168.44 502.64 163 504 C158.45073397 508.54580558 158.45073397 508.54580558 155.01953125 513.58984375 C154.4997168 514.4504541 153.97990234 515.31106445 153.44433594 516.19775391 C152.90583008 517.10187012 152.36732422 518.00598633 151.8125 518.9375 C147.46710318 526.11474242 142.99874923 533.09559072 137.98364258 539.82397461 C136.19638473 542.23505454 134.95879446 544.12361663 134 547 C134.66 546.34 135.32 545.68 136 545 C136.46535156 544.53980469 136.93070312 544.07960938 137.41015625 543.60546875 C138.50144395 542.50345586 139.57092613 541.37954775 140.62109375 540.23828125 C144.75566721 535.85474423 149.20473176 532.16405671 154.0625 528.625 C154.63991943 528.19614502 155.21733887 527.76729004 155.81225586 527.32543945 C163.22129737 522.06236377 170.13918841 521.78121453 179 522 C179 527.28 179 532.56 179 538 C179.66 538.33 180.32 538.66 181 539 C180.26136719 539.21914063 179.52273438 539.43828125 178.76171875 539.6640625 C166.62112719 543.45896151 157.88955885 548.70614047 148.77734375 557.3828125 C143.96681886 561.91593722 138.9134635 565.63855399 133.1875 568.9375 C132.45917969 569.35902344 131.73085938 569.78054688 130.98046875 570.21484375 C122.08748133 572.55755734 111.92867236 569.03553962 103.25 566.9375 C101.94513 566.62685685 100.64019691 566.31647858 99.33520508 566.00634766 C84.83835305 562.54169535 70.4011748 558.8417441 56 555 C55.11473633 554.76571289 54.22947266 554.53142578 53.31738281 554.29003906 C42.18360873 551.31267186 31.63467313 547.23295334 21.02026367 542.76855469 C19.0316786 542.01205127 17.07288731 541.47130911 15 541 C15.74998156 549.48713312 17.41040016 557.77758324 19.0625 566.125 C19.37657105 567.72118652 19.69061671 569.31737804 20.00463867 570.91357422 C20.8315211 575.10698815 21.66521102 579.29902252 22.50073242 583.49072266 C22.98650395 585.93216998 23.46926774 588.37419295 23.95117188 590.81640625 C27.71376421 609.85409884 31.78055397 628.80253435 36.25 647.6875 C36.45855621 648.57495911 36.66711243 649.46241821 36.88198853 650.37677002 C44.90987643 684.42276203 62.14911872 707.80007544 90 729 C90.57121582 729.44230957 91.14243164 729.88461914 91.73095703 730.34033203 C101.51633105 737.9142064 111.58955377 744.99558014 121.98876953 751.70166016 C123.75961336 752.8448196 125.51939239 754.00508078 127.27734375 755.16796875 C143.43120296 765.33731099 161.49804726 765.18222253 180 765.125 C181.25039063 765.12886719 182.50078125 765.13273438 183.7890625 765.13671875 C196.25224211 765.12381691 208.78252507 764.51106146 221.09765625 762.4921875 C230.15892755 761.04156684 238.85782533 760.78628683 248 761 C244.64286322 764.67080865 240.88649749 767.24372837 236.75 769.9375 C236.07976807 770.37771484 235.40953613 770.81792969 234.71899414 771.27148438 C233.40101768 772.13510201 232.08149058 772.99635889 230.76025391 773.85498047 C229.31832258 774.7929358 227.88283242 775.74078646 226.44921875 776.69140625 C219.67249563 781.09956595 213.45725487 782.40729501 205.5625 783.125 C204.19073608 783.25128784 204.19073608 783.25128784 202.79125977 783.38012695 C192.19166897 784.2678483 181.62644384 784.25160104 171 784 C170.09765625 783.98066406 169.1953125 783.96132813 168.265625 783.94140625 C165.65515361 783.87652611 163.04683293 783.78779095 160.4375 783.6875 C159.68976318 783.66518311 158.94202637 783.64286621 158.17163086 783.61987305 C155.76479765 783.50356159 153.39468147 783.26824242 151 783 C150.0195874 782.92080322 149.0391748 782.84160645 148.02905273 782.76000977 C135.56775835 781.02069143 126.28900049 773.57975112 116.1875 766.5625 C114.37310473 765.3267769 112.55735546 764.09303943 110.74023438 762.86132812 C82.4266718 743.60806082 82.4266718 743.60806082 69.25 733.4375 C68.55664551 732.90431152 67.86329102 732.37112305 67.14892578 731.82177734 C62.65332608 728.34034693 58.22782796 724.78335607 53.875 721.125 C53.33480225 720.67294189 52.79460449 720.22088379 52.23803711 719.75512695 C49.45878839 717.3873913 47.1015125 714.95727147 44.8125 712.125 C39.94970456 707.1805749 32.39735227 706.3715849 25.89550781 704.75146484 C-2.37165591 697.41534933 -29.66151246 686.53509078 -56 674 C-56.87527344 673.58427734 -57.75054687 673.16855469 -58.65234375 672.74023438 C-96.7041254 654.52395592 -134.0610364 629.79855386 -159 595 C-159 594.34 -159 593.68 -159 593 C-158.34 592.67 -157.68 592.34 -157 592 C-156.71511719 591.11570312 -156.43023437 590.23140625 -156.13671875 589.3203125 C-154.85761663 585.58410355 -153.14662666 583.05754456 -150.8125 579.875 C-150.38106689 579.28227295 -149.94963379 578.6895459 -149.50512695 578.07885742 C-146.25026634 573.62939673 -142.91856101 569.2377228 -139.59521484 564.83935547 C-131.73897409 554.43340567 -124.19497096 543.87454671 -117 533 C-116.55849609 532.33613281 -116.11699219 531.67226563 -115.66210938 530.98828125 C-89.56952263 491.46863373 -76.14311305 450.00185175 -70.75613403 403.25897217 C-69.18489939 389.68716539 -66.9532225 376.34336248 -64 363 C-63.75942871 361.90478027 -63.51885742 360.80956055 -63.27099609 359.68115234 C-55.00801552 322.80859787 -41.81969892 285.42182579 -20.98925781 253.66503906 C-19.83286901 251.85311981 -19.83286901 251.85311981 -19 249 C-19.66 249 -20.32 249 -21 249 C-20.47689099 239.44907575 -19.65212572 229.93349983 -18.765625 220.41015625 C-18.52145673 217.78035738 -18.27729623 215.1505578 -18.03320312 212.52075195 C-17.96991821 211.83906417 -17.9066333 211.15737638 -17.84143066 210.45503139 C-15.38141131 183.92635668 -13.25896317 157.3967048 -11.5 130.8125 C-9.37492881 98.74451692 -6.53516964 66.78267887 -3.37390137 34.80047607 C-2.68070313 27.75454491 -2.00112973 20.70729263 -1.3203125 13.66015625 C-1.18701334 12.28136584 -1.05370273 10.90257654 -0.92037964 9.52378845 C-0.61346091 6.34920441 -0.30666506 3.17460855 0 0 Z " fill="#293945" transform="translate(333,110)"/>
<path d="M0 0 C8.96249331 4.49887303 18.19171959 8.21999075 27.5090332 11.91723633 C28.6249585 12.36349365 29.74088379 12.80975098 30.890625 13.26953125 C31.88739258 13.66374268 32.88416016 14.0579541 33.91113281 14.46411133 C41.03709792 17.60412286 41.03709792 17.60412286 42.87060547 20.65820312 C43.13760254 21.42068359 43.40459961 22.18316406 43.6796875 22.96875 C44.00163086 23.85949219 44.32357422 24.75023437 44.65527344 25.66796875 C45.16622559 27.16263672 45.16622559 27.16263672 45.6875 28.6875 C46.07711914 29.77675781 46.46673828 30.86601563 46.86816406 31.98828125 C47.9631015 35.0557971 49.04345293 38.12800234 50.11767578 41.20281982 C56.97696725 60.79554478 64.21621349 80.2181262 72.375 99.3125 C72.80232422 100.33778809 73.22964844 101.36307617 73.66992188 102.41943359 C76.48386603 108.86895064 79.74627476 113.69614736 84.6875 118.6875 C85.26185791 119.2865918 85.83621582 119.88568359 86.42797852 120.50292969 C88.14054881 122.27296553 89.87642771 124.01556251 91.625 125.75 C92.54720337 126.66712769 92.54720337 126.66712769 93.48803711 127.6027832 C97.74642951 131.81279117 102.09051324 135.84816476 106.6875 139.6875 C108.22779977 140.99998056 109.76809661 142.31246455 111.30834961 143.625 C114.0919645 145.99040979 116.88974932 148.33884596 119.6875 150.6875 C120.52667969 151.39519531 121.36585938 152.10289062 122.23046875 152.83203125 C134.90806123 163.3731773 148.11259588 173.41381729 161.6887207 182.76928711 C165.58463495 185.48176991 165.58463495 185.48176991 166.6875 187.6875 C161.4569736 186.14324935 156.85481431 183.86086494 152.0625 181.3125 C151.23347168 180.87260742 150.40444336 180.43271484 149.55029297 179.97949219 C133.76564361 171.50996986 118.7786033 161.90045458 103.9453125 151.87939453 C100.09731736 149.29041819 96.23714878 146.72013814 92.375 144.15234375 C91.64556686 143.66717285 90.91613373 143.18200195 90.16459656 142.68212891 C87.22498892 140.72694773 84.28532855 138.7718472 81.34487915 136.81793213 C77.97343072 134.57686265 74.60644293 132.3298964 71.25 130.06640625 C69.06775512 128.59695639 66.8763 127.1831 64.640625 125.79296875 C58.51148097 121.87537153 55.67342416 118.32282118 53.0625 111.5625 C52.69825928 110.68924072 52.33401855 109.81598145 51.95874023 108.91625977 C50.83303298 106.18602329 49.755215 103.44087314 48.6875 100.6875 C48.35540527 99.84848145 48.02331055 99.00946289 47.68115234 98.14501953 C44.38107584 89.79390598 41.29062738 81.3689984 38.24609375 72.921875 C30.85575593 51.06088671 30.85575593 51.06088671 18.6875 31.6875 C20.02398456 39.19173628 21.97133285 46.39954029 24.1875 53.6875 C24.89760818 56.05324356 25.60721792 58.41913678 26.31640625 60.78515625 C26.88512451 62.67645264 26.88512451 62.67645264 27.46533203 64.60595703 C29.48645688 71.34228529 31.46825826 78.090279 33.45214844 84.83764648 C34.11680693 87.09714774 34.78291678 89.3562173 35.44921875 91.61523438 C35.86074115 93.01300197 36.27220245 94.41078756 36.68359375 95.80859375 C37.04638428 97.0402124 37.4091748 98.27183105 37.78295898 99.54077148 C38.08145752 100.57919189 38.37995605 101.6176123 38.6875 102.6875 C38.98466919 103.72015991 38.98466919 103.72015991 39.2878418 104.77368164 C41.61812847 115.93258038 38.27685498 126.32302064 35.13046265 136.92959595 C34.29364884 139.75105999 33.47781522 142.57787674 32.66723633 145.40698242 C31.55345459 149.2917821 30.43320745 153.17461687 29.30810547 157.05615234 C26.91286455 165.34772488 24.62722482 173.66858574 22.375 182 C22.16969666 182.75860321 21.96439331 183.51720642 21.75286865 184.29879761 C16.71719904 202.95838837 12.33158724 221.74680202 8.37695312 240.66601562 C-1.49965818 287.74025391 -1.49965818 287.74025391 -18.3125 305.6875 C-17.9825 306.3475 -17.6525 307.0075 -17.3125 307.6875 C-17.993125 308.038125 -18.67375 308.38875 -19.375 308.75 C-21.83884385 310.3750885 -23.4847492 311.78334159 -25.5 313.875 C-29.77485106 318.25922892 -34.47453738 321.94480706 -39.3125 325.6875 C-40.51693418 326.63280346 -41.72136076 327.5781166 -42.92578125 328.5234375 C-51.17451546 334.95307463 -59.60471742 341.08606205 -68.1875 347.0625 C-69.12553467 347.71605469 -70.06356934 348.36960937 -71.0300293 349.04296875 C-73.77869111 350.94296762 -76.54496674 352.8151363 -79.3125 354.6875 C-80.25859131 355.35450928 -81.20468262 356.02151855 -82.17944336 356.70874023 C-87.82428622 360.5562395 -91.2695589 362.55274237 -98.125 362 C-99.49697235 361.92651029 -100.86942633 361.86157031 -102.2421875 361.8046875 C-102.91991211 361.77342773 -103.59763672 361.74216797 -104.29589844 361.70996094 C-109.67545132 361.6500434 -115.02111017 362.82005904 -120.3125 363.6875 C-132.92591775 365.38585838 -145.59772887 365.85182403 -158.3125 365.8125 C-159.56289063 365.81636719 -160.81328125 365.82023437 -162.1015625 365.82421875 C-207.36511512 365.77736207 -240.73987568 339.11988555 -272 308.375 C-284.8125164 295.53521682 -294.0823972 282.70333412 -298.66796875 265.00390625 C-298.88510025 264.17127762 -299.10223175 263.33864899 -299.32594299 262.48078918 C-301.61133953 253.64551257 -303.70984925 244.76965975 -305.75 235.875 C-305.943591 235.03378601 -306.13718201 234.19257202 -306.3366394 233.3258667 C-309.64877143 218.90615869 -312.68851783 204.45177592 -315.48974609 189.92333984 C-316.27688098 185.85376315 -317.08468818 181.78840495 -317.89408875 177.72320557 C-318.64369258 173.95659512 -319.38903506 170.18914789 -320.13375854 166.42156982 C-320.50033059 164.57026485 -320.8682516 162.71922643 -321.23757935 160.86846924 C-321.75410278 158.27647251 -322.2644923 155.68333762 -322.7734375 153.08984375 C-323.00731926 151.92628105 -323.00731926 151.92628105 -323.2459259 150.73921204 C-323.9721785 147.00698771 -324.49788363 143.4935107 -324.3125 139.6875 C-318.66378424 141.20268493 -313.31621447 143.07699277 -307.9375 145.375 C-282.11249473 156.0672686 -253.03296734 161.82252651 -225.75 167.75 C-224.30608887 168.0742395 -224.30608887 168.0742395 -222.83300781 168.4050293 C-213.94478441 170.26541095 -208.00572513 169.04596052 -200.140625 164.5546875 C-196.33357955 162.04119617 -193.0979472 159.108204 -189.77734375 155.9921875 C-180.38162932 147.20697116 -171.84677927 141.82106982 -159.3125 138.6875 C-159.3125 133.0775 -159.3125 127.4675 -159.3125 121.6875 C-175.16927908 122.90725224 -183.52320857 127.56839618 -194.89916992 138.59912109 C-197.58504272 141.19662352 -199.98458989 143.04284837 -203.3125 144.6875 C-203.6425 145.6775 -203.9725 146.6675 -204.3125 147.6875 C-204.9725 147.3575 -205.6325 147.0275 -206.3125 146.6875 C-205.99724365 146.23238037 -205.6819873 145.77726074 -205.35717773 145.30834961 C-203.81830965 143.08271851 -202.28368142 140.85420858 -200.75 138.625 C-200.17443359 137.7896875 -199.59886719 136.954375 -199.00585938 136.09375 C-195.68606921 131.24749683 -192.44315532 126.36356596 -189.28515625 121.41015625 C-188.62265869 120.3744751 -187.96016113 119.33879395 -187.27758789 118.27172852 C-185.9849592 116.24293261 -184.70131253 114.208381 -183.42749023 112.16772461 C-182.53525757 110.76985718 -182.53525757 110.76985718 -181.625 109.34375 C-181.10550781 108.51681641 -180.58601562 107.68988281 -180.05078125 106.83789062 C-176.86920762 102.90203381 -173.12920837 101.3823298 -168.25 100.5 C-167.41339844 100.34144531 -166.57679688 100.18289063 -165.71484375 100.01953125 C-163.3125 99.6875 -163.3125 99.6875 -159.3125 99.6875 C-159.3125 76.2575 -159.3125 52.8275 -159.3125 28.6875 C-151.7225 27.6975 -144.1325 26.7075 -136.3125 25.6875 C-129.6703131 24.53978827 -123.05118251 23.35334046 -116.4375 22.0625 C-115.56227692 21.89375366 -114.68705383 21.72500732 -113.78530884 21.55114746 C-99.8192832 18.85626571 -85.89788866 15.96327018 -72 12.9375 C-71.14722473 12.75322449 -70.29444946 12.56894897 -69.41583252 12.37908936 C-59.55469496 10.23981721 -49.91226688 7.82986055 -40.3125 4.6875 C-38.82897214 4.22513766 -37.34469579 3.76516356 -35.859375 3.30859375 C-34.60640625 2.91800781 -33.3534375 2.52742187 -32.0625 2.125 C-31.38703125 1.91593018 -30.7115625 1.70686035 -30.015625 1.49145508 C-25.79252735 0.17732048 -21.62065698 -1.2246198 -17.5 -2.83203125 C-10.74093685 -4.31661119 -5.99830703 -3.18158562 0 0 Z " fill="#EDD9BB" transform="translate(671.3125,510.3125)"/>
<path d="M0 0 C0.33 0 0.66 0 1 0 C2.54343264 12.81119659 3.6377997 25.62689718 4.57476807 38.49551392 C6.18912005 60.5955574 8.09561628 82.65801376 10.24926758 104.71191406 C11.3552068 116.16748102 12.26261983 127.61353989 12.9609375 139.1015625 C13.61130569 149.74597969 14.42258129 160.35707561 15.4375 170.97265625 C15.53238771 171.96582194 15.53238771 171.96582194 15.62919235 172.97905159 C16.07954137 177.67418239 16.53893911 182.3684109 17 187.0625 C19.0244511 207.69354251 20.74773904 228.30720255 22 249 C21.34 249 20.68 249 20 249 C20.77024325 250.41698758 21.54127229 251.83354799 22.3125 253.25 C23.13427734 254.7659375 23.13427734 254.7659375 23.97265625 256.3125 C25.44934692 259.01839129 26.96577191 261.69910315 28.49609375 264.375 C56.74712709 314.13169273 67.84801743 369.10586498 74.51367188 425.30566406 C80.05985151 471.80476104 101.87588579 512.53899733 129 550 C129.87060059 551.20487061 129.87060059 551.20487061 130.75878906 552.43408203 C136.0440559 559.72751419 141.36032061 566.9846551 146.9921875 574.015625 C147.641875 574.8307959 148.2915625 575.6459668 148.9609375 576.48583984 C150.20764721 578.04200071 151.46499444 579.58971753 152.734375 581.12744141 C153.29382813 581.82530762 153.85328125 582.52317383 154.4296875 583.2421875 C154.92710449 583.8491748 155.42452148 584.45616211 155.93701172 585.08154297 C157.27994838 587.50524446 157.19345815 589.27218134 157 592 C157.99 592.33 158.98 592.66 160 593 C155.91879346 599.58802593 151.32114991 605.19041382 145.9375 610.75 C145.24333984 611.47832031 144.54917969 612.20664062 143.83398438 612.95703125 C140.27007817 616.68677924 136.66096594 620.36570777 133 624 C132.2575 624.763125 131.515 625.52625 130.75 626.3125 C114.99997501 641.70456987 97.02934581 653.07010856 78 664 C77.24138672 664.43940918 76.48277344 664.87881836 75.70117188 665.33154297 C54.19007717 677.67609563 30.31956677 686.73286262 7 695 C6.20239258 695.28423828 5.40478516 695.56847656 4.58300781 695.86132812 C-4.44928119 699.05281381 -13.58341388 701.80985026 -22.8125 704.375 C-23.7504541 704.63821045 -24.6884082 704.9014209 -25.65478516 705.17260742 C-26.53827637 705.41213135 -27.42176758 705.65165527 -28.33203125 705.8984375 C-29.11296143 706.11161621 -29.8938916 706.32479492 -30.69848633 706.54443359 C-33.18413598 707.03644826 -35.47247445 707.07880179 -38 707 C-37.62488281 706.5153125 -37.24976563 706.030625 -36.86328125 705.53125 C-28.05008163 693.98751246 -21.31171306 681.69011604 -17.52734375 667.62109375 C-17.31548935 666.84512344 -17.10363495 666.06915314 -16.88536072 665.26966858 C-14.63839776 656.89092019 -12.82787262 648.4282756 -11.0625 639.9375 C-6.17980219 616.57669094 -0.44760557 593.4948069 5.9375 570.5 C6.52576087 568.36859174 7.11365166 566.2370813 7.70117188 564.10546875 C7.99263092 563.05029053 8.28408997 561.9951123 8.5843811 560.90795898 C9.16891435 558.79066453 9.75207643 556.67299104 10.33383179 554.55493164 C11.83345723 549.11753739 13.37900322 543.69927616 15.00048828 538.296875 C20.34480749 520.34080161 20.91530745 508.02271697 15.4375 490.125 C14.97685309 488.57376815 14.51772131 487.02208561 14.06005859 485.4699707 C12.93327966 481.66452009 11.78653086 477.86551727 10.62994385 474.06903076 C9.72000529 471.08036618 8.81973238 468.08879593 7.91796875 465.09765625 C6.06482429 458.97782179 4.19779709 452.86218165 2.30371094 446.75488281 C1.69296139 444.7770009 1.09593495 442.79489587 0.5 440.8125 C0.1803125 439.76707031 -0.139375 438.72164062 -0.46875 437.64453125 C-1.01755927 434.91259097 -0.75954873 433.61355709 0 431 C5.13835541 437.05937269 8.76850982 442.98908995 11.8125 450.3125 C12.23136475 451.29524902 12.65022949 452.27799805 13.08178711 453.29052734 C16.85112956 462.29729415 20.09127994 471.47898393 23.30859375 480.6940918 C25.91456304 488.11175321 28.70128949 495.40425937 31.8125 502.625 C32.16127197 503.43469238 32.51004395 504.24438477 32.86938477 505.07861328 C33.54521924 506.61827334 34.23441987 508.152145 34.93774414 509.67944336 C35.68257456 511.30656659 36.39251824 512.94989949 37.07592773 514.60375977 C39.99618566 521.22526768 43.16838042 524.22331067 49.4375 527.6875 C51.14572683 528.69761092 52.85135385 529.71212822 54.5546875 530.73046875 C55.44510742 531.25688965 56.33552734 531.78331055 57.25292969 532.32568359 C61.97728105 535.20513628 66.5113768 538.35650243 71.0625 541.5 C72.92550421 542.77774778 74.78878289 544.05509547 76.65234375 545.33203125 C77.5532373 545.95029785 78.45413086 546.56856445 79.38232422 547.20556641 C96.44360149 558.90118177 113.86765021 569.72098903 132 579.6875 C132.93811523 580.20505859 133.87623047 580.72261719 134.84277344 581.25585938 C135.7196582 581.73216797 136.59654297 582.20847656 137.5 582.69921875 C138.2734375 583.12033936 139.046875 583.54145996 139.84375 583.9753418 C141.89700125 584.9510546 143.78019598 585.53995823 146 586 C145.23300781 585.46375 144.46601562 584.9275 143.67578125 584.375 C129.00453824 574.04393385 114.53830422 563.32190431 100.96875 551.5703125 C98.91919331 549.79582789 96.86276727 548.04053314 94.78125 546.3046875 C87.52971581 540.2534594 80.4846537 534.02625171 73.63818359 527.51953125 C72.00907976 526.00842212 70.3355537 524.56617327 68.64453125 523.125 C58.39285924 514.10424741 53.9169722 503.53601901 49 491 C48.43013187 489.56746667 47.85962148 488.13518871 47.28857422 486.703125 C41.47075767 472.07754068 35.7441054 457.41336791 30.76953125 442.4765625 C30.51992142 441.7304068 30.27031158 440.9842511 30.01313782 440.21548462 C28.84317333 436.70551841 27.69693442 433.19040998 26.58813477 429.66064453 C26.18522217 428.42685059 25.78230957 427.19305664 25.3671875 425.921875 C25.02800293 424.84518555 24.68881836 423.76849609 24.33935547 422.65917969 C22.05813827 418.13001132 17.92738899 416.84572271 13.40234375 415.0546875 C12.52739258 414.7040625 11.65244141 414.3534375 10.75097656 413.9921875 C9.8225293 413.62351562 8.89408203 413.25484375 7.9375 412.875 C-3.50477929 408.26891642 -14.96092839 403.51953581 -26 398 C-32.71604885 397.4891596 -37.84496768 398.97395279 -44.125 401.25 C-56.99000553 405.80554147 -70.01698934 409.3682219 -83.3125 412.4375 C-83.95784698 412.58718231 -84.60319397 412.73686462 -85.26809692 412.89108276 C-97.0065591 415.60945781 -108.78708054 418.06762478 -120.61865234 420.34667969 C-123.72029265 420.9459569 -126.8203202 421.55301829 -129.91981506 422.1632843 C-132.68484764 422.70738129 -135.45040922 423.24875419 -138.21609497 423.78952026 C-140.17999758 424.17380244 -142.14359356 424.55965064 -144.10717773 424.94555664 C-147.73479162 425.64984832 -151.36568065 426.33123306 -155 427 C-156.14146484 427.2160791 -157.28292969 427.4321582 -158.45898438 427.65478516 C-160.11124023 427.94361572 -160.11124023 427.94361572 -161.796875 428.23828125 C-162.75432617 428.41012939 -163.71177734 428.58197754 -164.69824219 428.7590332 C-168 429 -168 429 -178 428 C-178 305.24 -178 182.48 -178 56 C-176.3612336 59.2775328 -175.24994161 62.13609513 -174.1875 65.609375 C-173.83905029 66.74117188 -173.49060059 67.87296875 -173.1315918 69.0390625 C-172.7581665 70.26367188 -172.38474121 71.48828125 -172 72.75 C-171.40234977 74.69585824 -170.80343307 76.6413241 -170.20451355 78.58679199 C-169.78565695 79.94774994 -169.36721756 81.30883635 -168.94917297 82.67004395 C-166.55714203 90.45561379 -164.1221386 98.2276719 -161.6875 106 C-160.49736271 109.80021384 -159.30827078 113.60074615 -158.12255859 117.40234375 C-157.35764333 119.85379903 -156.58961208 122.30428372 -155.81884766 124.75390625 C-155.26849854 126.51541016 -155.26849854 126.51541016 -154.70703125 128.3125 C-154.21360229 129.88451172 -154.21360229 129.88451172 -153.71020508 131.48828125 C-153 134 -153 134 -153 136 C-152.29182129 136.15855469 -151.58364258 136.31710938 -150.85400391 136.48046875 C-142.76288947 138.38580843 -135.12137887 141.00324111 -127.375 144 C-126.43841553 144.36031311 -126.43841553 144.36031311 -125.48291016 144.72790527 C-120.97918188 146.46161872 -116.48698956 148.22346156 -112 150 C-110.87625977 150.44408203 -109.75251953 150.88816406 -108.59472656 151.34570312 C-85.13791234 160.71147719 -62.85890292 172.38173565 -41 185 C-40.82041748 184.16122314 -40.64083496 183.32244629 -40.45581055 182.45825195 C-39.78053201 179.30542681 -39.10471265 176.1527181 -38.4286499 173.00006104 C-38.02692786 171.12564418 -37.62598476 169.25106044 -37.22509766 167.37646484 C-33.94578523 152.07648146 -30.53311441 136.8238646 -26.8125 121.625 C-26.64006775 120.92048706 -26.4676355 120.21597412 -26.28997803 119.4901123 C-26.11935852 118.79309204 -25.94873901 118.09607178 -25.77294922 117.37792969 C-23.59656428 108.48527992 -21.5012009 99.58579133 -19.57324219 90.63623047 C-18.85414111 87.32922304 -18.11803268 84.02611706 -17.3828125 80.72265625 C-14.34978477 67.06079454 -11.43938296 53.39550373 -8.8527832 39.640625 C-7.26307968 31.23574885 -5.53588424 22.86509245 -3.75 14.5 C-3.4914624 13.28151367 -3.2329248 12.06302734 -2.96655273 10.80761719 C-2.72493408 9.68516602 -2.48331543 8.56271484 -2.234375 7.40625 C-2.02006836 6.40916016 -1.80576172 5.41207031 -1.58496094 4.38476562 C-1 2 -1 2 0 0 Z " fill="#50616B" transform="translate(690,110)"/>
<path d="M0 0 C8.96249331 4.49887303 18.19171959 8.21999075 27.5090332 11.91723633 C28.6249585 12.36349365 29.74088379 12.80975098 30.890625 13.26953125 C31.88739258 13.66374268 32.88416016 14.0579541 33.91113281 14.46411133 C41.03709792 17.60412286 41.03709792 17.60412286 42.87060547 20.65820312 C43.27110107 21.80192383 43.27110107 21.80192383 43.6796875 22.96875 C44.00163086 23.85949219 44.32357422 24.75023437 44.65527344 25.66796875 C45.16622559 27.16263672 45.16622559 27.16263672 45.6875 28.6875 C46.07711914 29.77675781 46.46673828 30.86601563 46.86816406 31.98828125 C47.9631015 35.0557971 49.04345293 38.12800234 50.11767578 41.20281982 C56.97696725 60.79554478 64.21621349 80.2181262 72.375 99.3125 C72.80232422 100.33778809 73.22964844 101.36307617 73.66992188 102.41943359 C76.48386603 108.86895064 79.74627476 113.69614736 84.6875 118.6875 C85.26185791 119.2865918 85.83621582 119.88568359 86.42797852 120.50292969 C88.14054881 122.27296553 89.87642771 124.01556251 91.625 125.75 C92.54720337 126.66712769 92.54720337 126.66712769 93.48803711 127.6027832 C97.74642951 131.81279117 102.09051324 135.84816476 106.6875 139.6875 C108.22779977 140.99998056 109.76809661 142.31246455 111.30834961 143.625 C114.0919645 145.99040979 116.88974932 148.33884596 119.6875 150.6875 C120.52667969 151.39519531 121.36585938 152.10289062 122.23046875 152.83203125 C134.90806123 163.3731773 148.11259588 173.41381729 161.6887207 182.76928711 C165.58463495 185.48176991 165.58463495 185.48176991 166.6875 187.6875 C161.4569736 186.14324935 156.85481431 183.86086494 152.0625 181.3125 C151.23347168 180.87260742 150.40444336 180.43271484 149.55029297 179.97949219 C133.76564361 171.50996986 118.7786033 161.90045458 103.9453125 151.87939453 C100.09731736 149.29041819 96.23714878 146.72013814 92.375 144.15234375 C91.64556686 143.66717285 90.91613373 143.18200195 90.16459656 142.68212891 C87.22498892 140.72694773 84.28532855 138.7718472 81.34487915 136.81793213 C77.97343072 134.57686265 74.60644293 132.3298964 71.25 130.06640625 C69.06775512 128.59695639 66.8763 127.1831 64.640625 125.79296875 C58.51148097 121.87537153 55.67342416 118.32282118 53.0625 111.5625 C52.69825928 110.68924072 52.33401855 109.81598145 51.95874023 108.91625977 C50.83303298 106.18602329 49.755215 103.44087314 48.6875 100.6875 C48.35540527 99.84848145 48.02331055 99.00946289 47.68115234 98.14501953 C44.38107584 89.79390598 41.29062738 81.3689984 38.24609375 72.921875 C30.85575593 51.06088671 30.85575593 51.06088671 18.6875 31.6875 C20.02398456 39.19173628 21.97133285 46.39954029 24.1875 53.6875 C24.89760818 56.05324356 25.60721792 58.41913678 26.31640625 60.78515625 C26.88512451 62.67645264 26.88512451 62.67645264 27.46533203 64.60595703 C29.48645688 71.34228529 31.46825826 78.090279 33.45214844 84.83764648 C34.11680693 87.09714774 34.78291678 89.3562173 35.44921875 91.61523438 C35.86074115 93.01300197 36.27220245 94.41078756 36.68359375 95.80859375 C37.04638428 97.0402124 37.4091748 98.27183105 37.78295898 99.54077148 C38.08145752 100.57919189 38.37995605 101.6176123 38.6875 102.6875 C38.98466919 103.72015991 38.98466919 103.72015991 39.2878418 104.77368164 C41.61812847 115.93258038 38.27685498 126.32302064 35.13046265 136.92959595 C34.29364884 139.75105999 33.47781522 142.57787674 32.66723633 145.40698242 C31.55345459 149.2917821 30.43320745 153.17461687 29.30810547 157.05615234 C26.91286455 165.34772488 24.62722482 173.66858574 22.375 182 C22.16969666 182.75860321 21.96439331 183.51720642 21.75286865 184.29879761 C16.71719904 202.95838837 12.33158724 221.74680202 8.37695312 240.66601562 C-1.49965818 287.74025391 -1.49965818 287.74025391 -18.3125 305.6875 C-17.9825 306.3475 -17.6525 307.0075 -17.3125 307.6875 C-17.993125 308.038125 -18.67375 308.38875 -19.375 308.75 C-21.83884385 310.3750885 -23.4847492 311.78334159 -25.5 313.875 C-29.77485106 318.25922892 -34.47453738 321.94480706 -39.3125 325.6875 C-40.51693418 326.63280346 -41.72136076 327.5781166 -42.92578125 328.5234375 C-51.17451546 334.95307463 -59.60471742 341.08606205 -68.1875 347.0625 C-69.12553467 347.71605469 -70.06356934 348.36960937 -71.0300293 349.04296875 C-73.77869111 350.94296762 -76.54496674 352.8151363 -79.3125 354.6875 C-80.25859131 355.35450928 -81.20468262 356.02151855 -82.17944336 356.70874023 C-87.82428622 360.5562395 -91.2695589 362.55274237 -98.125 362 C-99.48779667 361.92200367 -100.85114572 361.85318399 -102.21484375 361.79296875 C-103.22973877 361.745354 -103.22973877 361.745354 -104.26513672 361.69677734 C-108.78103516 361.67631417 -113.18928932 362.6283199 -117.6171875 363.4453125 C-118.50664063 363.52523438 -119.39609375 363.60515625 -120.3125 363.6875 C-120.9725 363.0275 -121.6325 362.3675 -122.3125 361.6875 C-121.70664062 361.47343506 -121.10078125 361.25937012 -120.4765625 361.03881836 C-113.79603662 358.54197181 -108.17165428 355.2854772 -102.3125 351.25 C-101.40677246 350.63455322 -100.50104492 350.01910645 -99.56787109 349.38500977 C-96.80658527 347.49920064 -94.05777777 345.59652086 -91.3125 343.6875 C-90.08708496 342.84010254 -90.08708496 342.84010254 -88.83691406 341.97558594 C-78.07395426 334.49895809 -68.02741371 326.47705537 -58.3125 317.6875 C-57.73097168 317.16768555 -57.14944336 316.64787109 -56.55029297 316.11230469 C-39.26943652 300.65788022 -24.73918259 284.17037717 -18.9375 261.1875 C-18.65132812 260.08929932 -18.36515625 258.99109863 -18.0703125 257.85961914 C-14.07349719 242.23306188 -10.70211177 226.45438291 -7.3125 210.6875 C-7.01047433 209.28709694 -6.70839253 207.88670598 -6.40625 206.48632812 C-1.54396836 183.92099845 3.07511634 161.3049818 7.6875 138.6875 C6.54539062 139.1721875 5.40328125 139.656875 4.2265625 140.15625 C-20.17470526 150.32323132 -45.647497 156.83771425 -71.25042725 163.17462158 C-73.22903723 163.66674115 -75.20563377 164.16693464 -77.18212891 164.66748047 C-108.87407439 172.67632127 -108.87407439 172.67632127 -120.0625 166.3125 C-125.33413528 162.70187876 -129.73263103 158.54528556 -134.13671875 153.9375 C-139.66445734 148.221203 -146.04492078 145.25517493 -153.24682617 142.09692383 C-158.21024835 139.8920033 -158.21024835 139.8920033 -159.3125 137.6875 C-159.38431821 134.96989892 -159.40549506 132.27890612 -159.375 129.5625 C-159.37048828 128.80839844 -159.36597656 128.05429687 -159.36132812 127.27734375 C-159.34953499 125.41402873 -159.33159942 123.55075445 -159.3125 121.6875 C-174.91080689 122.64649252 -183.70923675 127.74877879 -194.89916992 138.59912109 C-197.58504272 141.19662352 -199.98458989 143.04284837 -203.3125 144.6875 C-203.6425 145.6775 -203.9725 146.6675 -204.3125 147.6875 C-204.9725 147.3575 -205.6325 147.0275 -206.3125 146.6875 C-205.99724365 146.23238037 -205.6819873 145.77726074 -205.35717773 145.30834961 C-203.81830965 143.08271851 -202.28368142 140.85420858 -200.75 138.625 C-200.17443359 137.7896875 -199.59886719 136.954375 -199.00585938 136.09375 C-195.68606921 131.24749683 -192.44315532 126.36356596 -189.28515625 121.41015625 C-188.62265869 120.3744751 -187.96016113 119.33879395 -187.27758789 118.27172852 C-185.9849592 116.24293261 -184.70131253 114.208381 -183.42749023 112.16772461 C-182.53525757 110.76985718 -182.53525757 110.76985718 -181.625 109.34375 C-181.10550781 108.51681641 -180.58601563 107.68988281 -180.05078125 106.83789062 C-176.86920762 102.90203381 -173.12920837 101.3823298 -168.25 100.5 C-167.41339844 100.34144531 -166.57679688 100.18289063 -165.71484375 100.01953125 C-163.3125 99.6875 -163.3125 99.6875 -159.3125 99.6875 C-159.3125 76.2575 -159.3125 52.8275 -159.3125 28.6875 C-147.9275 27.2025 -147.9275 27.2025 -136.3125 25.6875 C-129.6703131 24.53978827 -123.05118251 23.35334046 -116.4375 22.0625 C-115.12466537 21.80938049 -115.12466537 21.80938049 -113.78530884 21.55114746 C-99.8192832 18.85626571 -85.89788866 15.96327018 -72 12.9375 C-71.14722473 12.75322449 -70.29444946 12.56894897 -69.41583252 12.37908936 C-59.55469496 10.23981721 -49.91226688 7.82986055 -40.3125 4.6875 C-38.82897214 4.22513766 -37.34469579 3.76516356 -35.859375 3.30859375 C-34.60640625 2.91800781 -33.3534375 2.52742187 -32.0625 2.125 C-31.38703125 1.91593018 -30.7115625 1.70686035 -30.015625 1.49145508 C-25.79252735 0.17732048 -21.62065698 -1.2246198 -17.5 -2.83203125 C-10.74093685 -4.31661119 -5.99830703 -3.18158562 0 0 Z " fill="#4F606A" transform="translate(671.3125,510.3125)"/>
<path d="M0 0 C5.64871576 1.51518493 10.99628553 3.38949277 16.375 5.6875 C42.20000527 16.3797686 71.27953266 22.13502651 98.5625 28.0625 C99.52510742 28.27865967 100.48771484 28.49481934 101.47949219 28.7175293 C110.36771559 30.57791095 116.30677487 29.35846052 124.171875 24.8671875 C127.97892045 22.35369617 131.2145528 19.420704 134.53515625 16.3046875 C143.91711796 7.53233028 152.07647075 1.61544116 165 0 C165 74.58 165 149.16 165 226 C117.90914008 226 84.90679007 200.74456117 52.3125 168.6875 C39.4999836 155.84771682 30.2301028 143.01583412 25.64453125 125.31640625 C25.42739975 124.48377762 25.21026825 123.65114899 24.98655701 122.79328918 C22.70116047 113.95801257 20.60265075 105.08215975 18.5625 96.1875 C18.368909 95.34628601 18.17531799 94.50507202 17.9758606 93.6383667 C14.66372857 79.21865869 11.62398217 64.76427592 8.82275391 50.23583984 C8.03561902 46.16626315 7.22781182 42.10090495 6.41841125 38.03570557 C5.66880742 34.26909512 4.92346494 30.50164789 4.17874146 26.73406982 C3.81216941 24.88276485 3.4442484 23.03172643 3.07492065 21.18096924 C2.55839722 18.58897251 2.0480077 15.99583762 1.5390625 13.40234375 C1.38314133 12.62663528 1.22722015 11.85092682 1.0665741 11.05171204 C0.3403215 7.31948771 -0.18538363 3.8060107 0 0 Z " fill="#AC9881" transform="translate(347,650)"/>
<path d="M0 0 C7.52831165 6.88302779 11.16256635 15.23051474 14.8125 24.625 C15.24554443 25.72166992 15.67858887 26.81833984 16.12475586 27.94824219 C18.89250971 35.00675209 21.51402885 42.10989799 24.0625 49.25 C26.71669303 56.68416687 29.57817726 63.9938342 32.6875 71.25 C33.22225952 72.49958496 33.22225952 72.49958496 33.76782227 73.77441406 C34.46744697 75.38288796 35.17988738 76.98585296 35.90551758 78.58276367 C36.66140017 80.25218003 37.38601745 81.93598153 38.0847168 83.63012695 C41.000078 90.23872996 44.18042715 93.22996745 50.4375 96.6875 C52.14572683 97.69761092 53.85135385 98.71212822 55.5546875 99.73046875 C56.44510742 100.25688965 57.33552734 100.78331055 58.25292969 101.32568359 C62.97728105 104.20513628 67.5113768 107.35650243 72.0625 110.5 C73.92550421 111.77774778 75.78878289 113.05509547 77.65234375 114.33203125 C78.5532373 114.95029785 79.45413086 115.56856445 80.38232422 116.20556641 C118.67095929 143.00057286 118.67095929 143.00057286 161 162 C156.91879346 168.58802593 152.32114991 174.19041382 146.9375 179.75 C146.24333984 180.47832031 145.54917969 181.20664062 144.83398438 181.95703125 C141.27007817 185.68677924 137.66096594 189.36570777 134 193 C132.88625 194.1446875 132.88625 194.1446875 131.75 195.3125 C115.99997501 210.70456987 98.02934581 222.07010856 79 233 C78.24138672 233.43940918 77.48277344 233.87881836 76.70117188 234.33154297 C55.19007717 246.67609563 31.31956677 255.73286262 8 264 C6.80358887 264.42635742 6.80358887 264.42635742 5.58300781 264.86132812 C-3.44928119 268.05281381 -12.58341388 270.80985026 -21.8125 273.375 C-22.7504541 273.63821045 -23.6884082 273.9014209 -24.65478516 274.17260742 C-25.53827637 274.41213135 -26.42176758 274.65165527 -27.33203125 274.8984375 C-28.11296143 275.11161621 -28.8938916 275.32479492 -29.69848633 275.54443359 C-32.18413598 276.03644826 -34.47247445 276.07880179 -37 276 C-36.62488281 275.5153125 -36.24976563 275.030625 -35.86328125 274.53125 C-27.05008163 262.98751246 -20.31171306 250.69011604 -16.52734375 236.62109375 C-16.20956215 235.45713829 -16.20956215 235.45713829 -15.88536072 234.26966858 C-13.63839776 225.89092019 -11.82787262 217.4282756 -10.0625 208.9375 C-5.17980219 185.57669094 0.55239443 162.4948069 6.9375 139.5 C7.52576087 137.36859174 8.11365166 135.2370813 8.70117188 133.10546875 C9.13836044 131.52270142 9.13836044 131.52270142 9.5843811 129.90795898 C10.16891435 127.79066453 10.75207643 125.67299104 11.33383179 123.55493164 C12.83345723 118.11753739 14.37900322 112.69927616 16.00048828 107.296875 C21.34480749 89.34080161 21.91530745 77.02271697 16.4375 59.125 C15.97685309 57.57376815 15.51772131 56.02208561 15.06005859 54.4699707 C13.93327966 50.66452009 12.78653086 46.86551727 11.62994385 43.06903076 C10.72000529 40.08036618 9.81973238 37.08879593 8.91796875 34.09765625 C7.77763253 30.33080793 6.62914589 26.5666061 5.47265625 22.8046875 C4.14467846 18.48083978 2.83615925 14.1527047 1.5625 9.8125 C1.25441406 8.76707031 0.94632813 7.72164062 0.62890625 6.64453125 C0 4 0 4 0 0 Z " fill="#2C3B47" transform="translate(689,541)"/>
<path d="M0 0 C0.33 0 0.66 0 1 0 C10.1900286 118.66113585 10.1900286 118.66113585 10.93920898 159.08203125 C10.98344171 161.20520185 11.06024211 163.32776984 11.15649414 165.44921875 C11.21051392 167.17591797 11.21051392 167.17591797 11.265625 168.9375 C11.30848633 169.97777344 11.35134766 171.01804687 11.39550781 172.08984375 C10.57398311 178.13464276 5.55603491 181.45235355 1 185 C0.39414062 185.48404297 -0.21171875 185.96808594 -0.8359375 186.46679688 C-9.63637658 193.47357216 -18.7678141 200.0525833 -27.84155273 206.69824219 C-33.30057761 210.70895434 -38.67008925 214.81959767 -44 219 C-51.69540175 225.03426864 -59.52949909 230.85809719 -67.41796875 236.63671875 C-71.6121165 239.70938977 -75.78121658 242.8138564 -79.9375 245.9375 C-80.57212158 246.41429199 -81.20674316 246.89108398 -81.8605957 247.38232422 C-83.90748151 248.92099482 -85.95376033 250.46047024 -88 252 C-90.558964 253.92455629 -93.11832853 255.84857123 -95.67871094 257.77124023 C-97.42801408 259.08548773 -99.17607202 260.40139435 -100.92285156 261.71899414 C-105.11674457 264.87496764 -109.34207998 267.92962412 -113.6875 270.875 C-125.81805057 279.60284463 -136.180415 291.67999001 -145.625 303.1875 C-147.95570329 305.94754337 -150.43773051 308.46187394 -153 311 C-154.51362616 312.51241526 -156.02657963 314.02550389 -157.5390625 315.5390625 C-163.359375 321.359375 -169.1796875 327.1796875 -175 333 C-175 233.01 -175 133.02 -175 30 C-172.77693681 33.33459479 -172.28097099 35.68525741 -171.484375 39.59765625 C-171.34606262 40.26421738 -171.20775024 40.9307785 -171.06524658 41.61753845 C-170.62061759 43.76463499 -170.18471941 45.91337714 -169.75 48.0625 C-164.99304398 71.38162264 -159.43837655 94.51359328 -153.84057617 117.64306641 C-152.93310475 121.39316324 -152.02793108 125.14380938 -151.12304688 128.89453125 C-144.87567608 155.35216712 -144.87567608 155.35216712 -137.6875 181.5625 C-137.40189209 182.52994141 -137.11628418 183.49738281 -136.82202148 184.49414062 C-136.21169162 186.55931703 -135.59943689 188.62392546 -134.98535156 190.68798828 C-133.91076367 194.29994549 -132.84177251 197.91353235 -131.7734375 201.52734375 C-129.85329893 208.01952086 -127.92834244 214.51025528 -126 221 C-119.84462942 217.7544736 -114.20413727 214.14983956 -108.625 210 C-102.36322651 205.41008467 -96.04743712 200.92489752 -89.625 196.5625 C-83.02206517 192.07657811 -76.46506232 187.53239438 -69.9375 182.9375 C-55.95180816 173.11864864 -41.71502506 163.74172292 -27.25830078 154.63085938 C-26.37126465 154.07076172 -25.48422852 153.51066406 -24.5703125 152.93359375 C-23.78414551 152.43915771 -22.99797852 151.94472168 -22.18798828 151.43530273 C-21.46595215 150.96165283 -20.74391602 150.48800293 -20 150 C-19.28875977 149.64333252 -18.57751953 149.28666504 -17.84472656 148.91918945 C-14.74978181 145.69931641 -14.59510388 141.66213796 -13.9140625 137.359375 C-13.66687973 135.89899811 -13.66687973 135.89899811 -13.41470337 134.40911865 C-11.56893663 123.0783903 -10.45373076 111.67425555 -9.375 100.25 C-9.06878796 97.09893231 -8.76000284 93.94812346 -8.45111084 90.7973175 C-8.25043592 88.74584234 -8.05108021 86.69423768 -7.85308838 84.64250183 C-7.27071053 78.63109214 -6.63461505 72.62891711 -5.9453125 66.62890625 C-5.01052544 58.44002241 -4.31626313 50.24049436 -3.68081665 42.02352905 C-3.37055577 38.01516789 -3.05074376 34.00757173 -2.73046875 30 C-2.66824631 29.22021286 -2.60602386 28.44042572 -2.54191589 27.63700867 C-1.80052212 18.41450553 -0.92818741 9.20543516 0 0 Z " fill="#C6C9C9" transform="translate(687,174)"/>
<path d="M0 0 C0.33 0 0.66 0 1 0 C1.08564209 0.97348389 1.17128418 1.94696777 1.25952148 2.94995117 C1.57917302 6.57503807 1.90245233 10.199794 2.22680664 13.82446289 C2.36646292 15.39078168 2.50514628 16.95718755 2.64282227 18.52368164 C2.84132873 20.78034905 3.04337684 23.03667615 3.24609375 25.29296875 C3.3065538 25.98899704 3.36701385 26.68502533 3.42930603 27.40214539 C3.75609902 30.99933716 4.28960911 34.46322788 5 38 C5.23170559 40.27603378 5.43288978 42.555263 5.61328125 44.8359375 C5.72541853 46.20893667 5.83798644 47.58190072 5.95092773 48.95483398 C6.03877029 50.03485184 6.03877029 50.03485184 6.12838745 51.13668823 C7.46366907 67.37010947 9.16080232 83.52007885 11.51464844 99.640625 C11.82321271 101.7763616 12.11720946 103.91429228 12.39160156 106.0546875 C12.73409101 108.6923129 13.13610551 111.31233566 13.5625 113.9375 C13.64556396 114.65800537 13.72862793 115.37851074 13.81420898 116.12084961 C14.7302183 121.05425639 16.96469535 123.0889036 20.96484375 126.04296875 C22.96376605 127.38129249 24.9757262 128.70033989 27 130 C28.79258599 131.21479035 30.58427045 132.43091222 32.375 133.6484375 C34.24839263 134.89304782 36.1234586 136.13514229 38 137.375 C40.10428648 138.77065271 42.20844821 140.16649351 44.3125 141.5625 C45.40175781 142.284375 46.49101562 143.00625 47.61328125 143.75 C51.0825189 146.05208339 54.54183132 148.36883459 58 150.6875 C68.07502576 157.438133 78.13801395 164.18002364 88.48364258 170.51269531 C94.10446625 173.98670272 99.45603643 177.80890247 104.82495117 181.65698242 C111.58789691 186.47978399 118.55771738 191.27885869 126 195 C126.10054687 193.9275 126.20109375 192.855 126.3046875 191.75 C127.02525797 186.0256074 128.59147901 180.55140396 130.125 175 C130.59087524 173.29009888 130.59087524 173.29009888 131.06616211 171.5456543 C133.1506152 163.94362394 135.33284291 156.37302486 137.5625 148.8125 C142.92616634 130.61249374 147.46871344 112.20544685 152.04541016 93.79541016 C153.90932539 86.30576186 155.82443795 78.83275194 157.8125 71.375 C162.95128936 52.02360676 167.38170377 32.48043214 172 13 C172.33 13 172.66 13 173 13 C173 109.69 173 206.38 173 306 C171.35 304.35 169.7 302.7 168 301 C166.59891742 299.61981231 165.19660473 298.24087207 163.79296875 296.86328125 C162.25770297 295.34646502 160.7225493 293.82953531 159.1875 292.3125 C158.39923828 291.54099609 157.61097656 290.76949219 156.79882812 289.97460938 C156.05439453 289.23662109 155.30996094 288.49863281 154.54296875 287.73828125 C153.86258545 287.06837158 153.18220215 286.39846191 152.48120117 285.70825195 C151 284 151 284 151 282 C150.34 282 149.68 282 149 282 C147.765625 280.7421875 147.765625 280.7421875 146.25 278.875 C142.70620527 274.69093983 138.89843222 270.84825539 135 267 C131.25985441 263.29988207 127.55275137 259.62141058 124.125 255.625 C118.28554879 248.81951612 112.19754207 243.24782963 104.82885742 238.12670898 C99.83405468 234.64386065 95.03279228 230.95500866 90.25 227.1875 C83.48540358 221.8739023 76.60545517 216.76293903 69.61254883 211.75463867 C61.98431202 206.28833109 54.47965001 200.66728025 47 195 C46.3105127 194.47937988 45.62102539 193.95875977 44.91064453 193.42236328 C36.42490305 187.01078421 28.04506943 180.49450117 19.82617188 173.7434082 C16.6422203 171.13090465 13.44286401 168.55264557 10.16796875 166.0546875 C9.55010498 165.58111816 8.93224121 165.10754883 8.2956543 164.61962891 C7.15842999 163.75221512 6.01595128 162.89161152 4.86645508 162.04052734 C-6.97517334 152.9837698 -6.97517334 152.9837698 -8.66699219 146.40722656 C-8.86882989 143.39888364 -8.79508124 140.5105755 -8.625 137.5 C-8.57206787 135.72906982 -8.57206787 135.72906982 -8.51806641 133.92236328 C-8.43089627 131.30892897 -8.32773097 128.70190039 -8.19726562 126.09082031 C-8.02984451 122.7378029 -7.90769999 119.38471786 -7.80157471 116.02912903 C-6.54331237 77.30384857 -2.95732932 38.62403467 0 0 Z " fill="#677076" transform="translate(339,201)"/>
<path d="M0 0 C4.33346622 1.13511324 8.68029223 2.2140319 13.02845764 3.29125977 C17.26848 4.34207954 21.50619151 5.40203871 25.74362183 6.46325684 C27.86927537 6.99466516 29.99551273 7.52374398 32.12234497 8.05041504 C35.15168984 8.80265592 38.17765089 9.56731982 41.203125 10.33496094 C42.110625 10.55779755 43.018125 10.78063416 43.953125 11.01022339 C51.93852626 13.05881412 59.00221062 15.61297192 64.38671875 22.13964844 C66.97095656 28.10327416 65.1791817 35.03722634 63.26171875 40.95214844 C62.92068115 42.00752808 62.92068115 42.00752808 62.57275391 43.08422852 C57.80111813 57.22535604 47.87870778 69.94286048 35.28515625 77.96777344 C25.39567211 81.96621716 16.09244702 78.83463251 6.19921875 76.45214844 C2.97304099 75.69610729 -0.25545873 74.95030279 -3.484375 74.20605469 C-4.27458038 74.02271576 -5.06478577 73.83937683 -5.87893677 73.65048218 C-13.17398445 71.97372991 -20.51126731 70.6152917 -27.91479492 69.50805664 C-34.08939987 68.50768033 -39.90084124 66.81753507 -44.453125 62.32324219 C-44.81535156 61.74703125 -45.17757813 61.17082031 -45.55078125 60.57714844 C-45.93105469 59.99835938 -46.31132812 59.41957031 -46.703125 58.82324219 C-48.32216817 55.82835975 -48.73904017 53.33087577 -48.74267578 49.99462891 C-48.74582794 49.16301239 -48.7489801 48.33139587 -48.75222778 47.47457886 C-48.75020355 46.57772369 -48.74817932 45.68086853 -48.74609375 44.75683594 C-48.74705048 43.82799591 -48.7480072 42.89915588 -48.74899292 41.94216919 C-48.74967379 39.97348971 -48.74782599 38.00480799 -48.74365234 36.03613281 C-48.73833902 33.04714796 -48.74358164 30.05831588 -48.75 27.06933594 C-48.74933849 25.15266894 -48.74805583 23.23600204 -48.74609375 21.31933594 C-48.74811798 20.43462616 -48.75014221 19.54991638 -48.75222778 18.63839722 C-48.69647232 3.5942193 -48.69647232 3.5942193 -45.42578125 -0.79785156 C-32.57599794 -10.22102599 -13.82858236 -3.64657822 0 0 Z " fill="#FDFBF6" transform="translate(404.61328125,562.8603515625)"/>
<path d="M0 0 C0.98129883 0.26248535 1.96259766 0.5249707 2.97363281 0.79541016 C6.37839368 1.74050212 9.75026275 2.76549537 13.125 3.8125 C27.91434046 8.34279797 42.73243723 12.29324755 57.875 15.4375 C59.32848387 15.74186552 60.78193383 16.04639301 62.23535156 16.35107422 C65.83085731 17.10312819 69.42761059 17.84898953 73.02502441 18.59185791 C74.84476391 18.96791941 76.66410044 19.34592949 78.48339844 19.72412109 C98.97474956 23.97202263 119.57340257 27.81360659 140.32543945 30.54614258 C143 31 143 31 144 32 C144.08631874 33.34267413 144.10706473 34.68974322 144.09765625 36.03515625 C144.09443359 36.84404297 144.09121094 37.65292969 144.08789062 38.48632812 C144.07951172 39.33646484 144.07113281 40.18660156 144.0625 41.0625 C144.05798828 41.91650391 144.05347656 42.77050781 144.04882812 43.65039062 C144.03700373 45.76695663 144.01906769 47.88348685 144 50 C122.74928741 49.10555782 101.97183531 45.62722135 81.11572266 41.60107422 C78.37396703 41.0721444 75.63095431 40.55103105 72.88671875 40.03515625 C69.60372584 39.41760619 66.3228489 38.79011657 63.04296875 38.15625 C58.9212862 37.36143122 54.79552028 36.5917637 50.66734314 35.83164978 C19.05880386 29.99575374 19.05880386 29.99575374 5.671875 25.26171875 C-5.44242971 21.44265447 -12.94318791 22.01793571 -23.8125 26.43359375 C-35.77102674 32.31027172 -40.58807876 42.59200171 -44.71484375 54.69140625 C-47.74221099 63.40631222 -51.03174679 72.00445908 -54.421875 80.58398438 C-55.37352564 82.99626274 -56.31583839 85.41205433 -57.2578125 87.828125 C-60.35335291 95.71779981 -63.57849497 103.54069679 -67.1015625 111.25 C-67.4033139 111.92885254 -67.70506531 112.60770508 -68.01596069 113.30712891 C-71.11778964 119.93791984 -75.5045396 125.21397193 -81.3984375 129.578125 C-82.59956177 130.4748291 -82.59956177 130.4748291 -83.82495117 131.38964844 C-85.08722534 132.31052246 -85.08722534 132.31052246 -86.375 133.25 C-87.70011597 134.22888184 -87.70011597 134.22888184 -89.05200195 135.22753906 C-96.9109131 141.00258901 -104.87788185 146.60195849 -113 152 C-113.68126953 152.4532666 -114.36253906 152.9065332 -115.06445312 153.37353516 C-124.82836046 159.84133198 -134.76489348 165.96321653 -144.91796875 171.80029297 C-146.97178335 172.98374102 -149.01724984 174.18073383 -151.0625 175.37890625 C-162.1552811 181.81687369 -173.55496285 187.68452678 -186 191 C-182.81932723 187.53660076 -179.24771756 185.07453798 -175.3125 182.5625 C-167.30884102 177.33489819 -159.75717103 171.60561328 -152.22216797 165.72949219 C-149.94773051 163.95931915 -147.66433463 162.2012665 -145.37890625 160.4453125 C-134.18582789 151.82538266 -123.31200932 142.91331622 -112.75390625 133.5234375 C-111.62110535 132.53949017 -110.4630396 131.58358173 -109.27734375 130.6640625 C-81.08413134 108.44344406 -70.00644005 59.28987767 -58.22079468 26.9908905 C-55.35983308 19.17313698 -55.35983308 19.17313698 -52.27880859 17.69067383 C-51.08078613 17.20107178 -49.88276367 16.71146973 -48.6484375 16.20703125 C-47.99735016 15.93791428 -47.34626282 15.6687973 -46.67544556 15.39152527 C-44.57786043 14.52545854 -42.47675693 13.66838748 -40.375 12.8125 C-37.65176478 11.69853752 -34.93096278 10.57880478 -32.2109375 9.45703125 C-31.53174255 9.18013458 -30.85254761 8.90323792 -30.152771 8.61795044 C-26.68328202 7.1865588 -23.29336626 5.67771974 -19.94628906 3.97802734 C-7.52912448 -2.31579073 -7.52912448 -2.31579073 0 0 Z " fill="#56636C" transform="translate(368,508)"/>
<path d="M0 0 C2.99042415 2.99042415 3.10242785 6.03289226 3.31640625 10.1328125 C3.35846191 10.92993652 3.40051758 11.72706055 3.44384766 12.54833984 C3.48300293 13.3986377 3.5221582 14.24893555 3.5625 15.125 C3.6042334 16.01010254 3.6459668 16.89520508 3.68896484 17.80712891 C4.04015257 25.85004466 4.19204787 33.87831085 4.03710938 41.92773438 C4.00114693 43.93595286 3.99231383 45.94460023 3.984375 47.953125 C3.78421782 54.67268751 3.16379197 59.229289 -1.234375 64.44921875 C-6.62345353 69.18254657 -12.17977313 70.05692861 -19.0625 71.3125 C-21.29723792 71.73898813 -23.53159915 72.16745371 -25.765625 72.59765625 C-26.93802734 72.82211426 -28.11042969 73.04657227 -29.31835938 73.27783203 C-35.66650232 74.52304469 -41.98891458 75.88638031 -48.3125 77.25 C-49.51592041 77.50821533 -50.71934082 77.76643066 -51.95922852 78.0324707 C-57.58339186 79.22478484 -57.58339186 79.22478484 -63.17651367 80.55126953 C-69.33976925 82.06794696 -75.44807518 82.30585549 -81.16796875 79.37890625 C-94.17196906 69.94133293 -103.94352217 58.09078982 -108.875 42.8125 C-109.09067627 42.14710205 -109.30635254 41.4817041 -109.52856445 40.79614258 C-111.08624851 35.59847845 -112.06398952 30.56609238 -109.9375 25.4375 C-99.55804995 12.37948219 -81.62131767 10.84514812 -66.21385193 7.36663818 C-59.94442428 5.94723904 -53.7155964 4.42802777 -47.50390625 2.7734375 C-46.08915544 2.40128082 -44.67436083 2.02929064 -43.25952148 1.6574707 C-41.2261526 1.12251732 -39.19544587 0.58208534 -37.16970825 0.01889038 C-25.32017259 -3.27232085 -11.42010969 -5.93845704 0 0 Z " fill="#FDFBF6" transform="translate(665,561)"/>
<path d="M0 0 C8.96249331 4.49887303 18.19171959 8.21999075 27.5090332 11.91723633 C28.6249585 12.36349365 29.74088379 12.80975098 30.890625 13.26953125 C31.88739258 13.66374268 32.88416016 14.0579541 33.91113281 14.46411133 C41.03709792 17.60412286 41.03709792 17.60412286 42.87060547 20.65820312 C43.27110107 21.80192383 43.27110107 21.80192383 43.6796875 22.96875 C44.00163086 23.85949219 44.32357422 24.75023437 44.65527344 25.66796875 C45.16622559 27.16263672 45.16622559 27.16263672 45.6875 28.6875 C46.07711914 29.77675781 46.46673828 30.86601563 46.86816406 31.98828125 C47.9631015 35.0557971 49.04345293 38.12800234 50.11767578 41.20281982 C56.97696725 60.79554478 64.21621349 80.2181262 72.375 99.3125 C72.80232422 100.33778809 73.22964844 101.36307617 73.66992188 102.41943359 C76.48386603 108.86895064 79.74627476 113.69614736 84.6875 118.6875 C85.26185791 119.2865918 85.83621582 119.88568359 86.42797852 120.50292969 C88.14054881 122.27296553 89.87642771 124.01556251 91.625 125.75 C92.54720337 126.66712769 92.54720337 126.66712769 93.48803711 127.6027832 C97.74642951 131.81279117 102.09051324 135.84816476 106.6875 139.6875 C108.22779977 140.99998056 109.76809661 142.31246455 111.30834961 143.625 C114.0919645 145.99040979 116.88974932 148.33884596 119.6875 150.6875 C120.52667969 151.39519531 121.36585938 152.10289062 122.23046875 152.83203125 C134.90806123 163.3731773 148.11259588 173.41381729 161.6887207 182.76928711 C165.58463495 185.48176991 165.58463495 185.48176991 166.6875 187.6875 C161.4569736 186.14324935 156.85481431 183.86086494 152.0625 181.3125 C151.23347168 180.87260742 150.40444336 180.43271484 149.55029297 179.97949219 C133.76564361 171.50996986 118.7786033 161.90045458 103.9453125 151.87939453 C100.09731736 149.29041819 96.23714878 146.72013814 92.375 144.15234375 C91.64556686 143.66717285 90.91613373 143.18200195 90.16459656 142.68212891 C87.22498892 140.72694773 84.28532855 138.7718472 81.34487915 136.81793213 C77.97343072 134.57686265 74.60644293 132.3298964 71.25 130.06640625 C69.06775512 128.59695639 66.8763 127.1831 64.640625 125.79296875 C58.51148097 121.87537153 55.67342416 118.32282118 53.0625 111.5625 C52.69825928 110.68924072 52.33401855 109.81598145 51.95874023 108.91625977 C50.83303298 106.18602329 49.755215 103.44087314 48.6875 100.6875 C48.35540527 99.84848145 48.02331055 99.00946289 47.68115234 98.14501953 C44.38107584 89.79390598 41.29062738 81.3689984 38.24609375 72.921875 C29.08425831 43.92078485 29.08425831 43.92078485 8.0625 23.6875 C6.28248234 22.99032642 4.49151028 22.3200036 2.6875 21.6875 C1.49125 21.23375 0.295 20.78 -0.9375 20.3125 C-8.41569985 18.92764818 -16.03794768 21.15650536 -23.3125 22.9375 C-24.22749268 23.15712402 -25.14248535 23.37674805 -26.08520508 23.60302734 C-31.78563067 24.99506662 -37.39612067 26.57670302 -43 28.3125 C-49.48122317 30.3115686 -55.92339898 31.64266867 -62.63549805 32.61181641 C-68.15635211 33.41885588 -73.53121205 34.6407483 -78.9609375 35.92041016 C-88.99691493 38.21739742 -99.1761788 39.89934632 -109.3125 41.6875 C-109.96158325 41.80218628 -110.6106665 41.91687256 -111.27941895 42.03503418 C-127.27989379 44.85333865 -143.03949128 47.28403697 -159.3125 47.6875 C-159.3125 41.4175 -159.3125 35.1475 -159.3125 28.6875 C-154.919375 28.1925 -154.919375 28.1925 -150.4375 27.6875 C-124.06644116 24.38716515 -97.94828517 18.58681475 -72 12.9375 C-71.14722473 12.75322449 -70.29444946 12.56894897 -69.41583252 12.37908936 C-59.55469496 10.23981721 -49.91226688 7.82986055 -40.3125 4.6875 C-38.82897214 4.22513766 -37.34469579 3.76516356 -35.859375 3.30859375 C-34.60640625 2.91800781 -33.3534375 2.52742187 -32.0625 2.125 C-31.38703125 1.91593018 -30.7115625 1.70686035 -30.015625 1.49145508 C-25.79252735 0.17732048 -21.62065698 -1.2246198 -17.5 -2.83203125 C-10.74093685 -4.31661119 -5.99830703 -3.18158562 0 0 Z " fill="#B8BEC3" transform="translate(671.3125,510.3125)"/>
<path d="M0 0 C4.59142559 4.87551045 7.87024153 10.46952339 11.3125 16.1875 C15.44713692 22.97999231 19.62416795 29.56424148 24.51171875 35.84375 C26.09805415 38.14206271 27.06263747 40.37723193 28 43 C23.69474584 39.97716197 19.76395458 36.87226266 16.125 33.0625 C8.86247153 25.61448456 0.27488148 19.03542228 -10.3984375 18.6015625 C-12.39062463 18.593657 -14.38293185 18.60183642 -16.375 18.625 C-17.365 18.61339844 -18.355 18.60179687 -19.375 18.58984375 C-29.30822186 18.62915729 -36.4365133 20.8233751 -44.0625 27.1875 C-44.66030273 27.67001221 -45.25810547 28.15252441 -45.87402344 28.6496582 C-50.03576527 32.05743678 -53.89823063 35.67873279 -57.546875 39.63671875 C-59 41 -59 41 -61 41 C-61.33 41.99 -61.66 42.98 -62 44 C-62.66 43.67 -63.32 43.34 -64 43 C-63.68474365 42.54488037 -63.3694873 42.08976074 -63.04467773 41.62084961 C-61.50580965 39.39521851 -59.97118142 37.16670858 -58.4375 34.9375 C-57.86193359 34.1021875 -57.28636719 33.266875 -56.69335938 32.40625 C-53.37356921 27.55999683 -50.13065532 22.67606596 -46.97265625 17.72265625 C-46.31015869 16.6869751 -45.64766113 15.65129395 -44.96508789 14.58422852 C-43.6724592 12.55543261 -42.38881253 10.520881 -41.11499023 8.48022461 C-40.52016846 7.54831299 -39.92534668 6.61640137 -39.3125 5.65625 C-38.79300781 4.82931641 -38.27351563 4.00238281 -37.73828125 3.15039062 C-30.62074347 -5.65456342 -9.04252416 -6.15743615 0 0 Z " fill="#B5BAB9" transform="translate(529,614)"/>
<path d="M0 0 C18.32685512 -0.65194346 18.32685512 -0.65194346 24 3 C28.60199956 7.86234562 31.8719009 13.47227979 35.3125 19.1875 C39.44713692 25.97999231 43.62416795 32.56424148 48.51171875 38.84375 C50.09805415 41.14206271 51.06263747 43.37723193 52 46 C47.69474584 42.97716197 43.76395458 39.87226266 40.125 36.0625 C30.36627991 26.05453951 20.859356 21.77861551 7 21 C7 14.4 7 7.8 7 1 C4.69 1 2.38 1 0 1 C0 0.67 0 0.34 0 0 Z " fill="#E0E3E2" transform="translate(505,611)"/>
<path d="M0 0 C3.57231298 5.35846947 3.12223971 10.765775 3 17 C2.34 17 1.68 17 1 17 C1.08169806 52.63633728 1.17383531 88.27263218 1.28005161 123.90890502 C1.29257108 128.11228411 1.30500376 132.31566346 1.31738281 136.51904297 C1.31984881 137.35589048 1.3223148 138.192738 1.32485552 139.05494453 C1.36462245 152.62035498 1.39735234 166.1857738 1.42749982 179.75120865 C1.45857008 193.66169619 1.49716036 207.57214808 1.54279006 221.48259556 C1.57072672 230.07202484 1.5927372 238.66142791 1.60726251 247.25089051 C1.61777229 253.13413617 1.63556008 259.0173312 1.65916704 264.90053879 C1.67258657 268.29919818 1.68270532 271.69778637 1.68421364 275.09647369 C1.68751208 278.77428535 1.70292348 282.45184691 1.7215271 286.12960815 C1.71959237 287.21324799 1.71765763 288.29688783 1.71566427 289.41336524 C1.72312976 290.3926981 1.73059525 291.37203096 1.73828697 292.38104057 C1.74170446 293.65576172 1.74170446 293.65576172 1.74519098 294.95623481 C1.81559662 297.22505809 1.81559662 297.22505809 4 299 C2.02 300.98 2.02 300.98 0 303 C0 203.01 0 103.02 0 0 Z " fill="#D8D9D7" transform="translate(512,204)"/>
<path d="M0 0 C0.33 0.66 0.66 1.32 1 2 C0.4740625 2.928125 0.4740625 2.928125 -0.0625 3.875 C-0.371875 4.57625 -0.68125 5.2775 -1 6 C-0.10577402 8.12207011 -0.10577402 8.12207011 1 10 C0.46890625 10.45890625 -0.0621875 10.9178125 -0.609375 11.390625 C-5.1052501 15.29279373 -5.1052501 15.29279373 -9.375 19.4375 C-11 21 -11 21 -13 21 C-13.33 21.99 -13.66 22.98 -14 24 C-14.66 23.67 -15.32 23.34 -16 23 C-13.89731966 19.91565065 -11.7925957 16.83270125 -9.6875 13.75 C-9.09259766 12.87730469 -8.49769531 12.00460937 -7.88476562 11.10546875 C-7.30791016 10.26113281 -6.73105469 9.41679688 -6.13671875 8.546875 C-5.60780029 7.77182617 -5.07888184 6.99677734 -4.53393555 6.19824219 C-3.06683912 4.09578537 -1.5510963 2.04102318 0 0 Z " fill="#C2C5C3" transform="translate(481,634)"/>
<path d="M0 0 C0.33 0 0.66 0 1 0 C1.33951619 1.56116819 1.67132544 3.12401338 2 4.6875 C2.185625 5.55761719 2.37125 6.42773438 2.5625 7.32421875 C2.98972047 9.93712964 3.07616201 12.35813038 3 15 C2.34 15 1.68 15 1 15 C0.01 24.9 -0.98 34.8 -2 45 C-2.33 45 -2.66 45 -3 45 C-3.21739218 34.74834825 -2.57122621 24.80524373 -1.5 14.625 C-1.35482932 13.19537729 -1.21029506 11.7656898 -1.06640625 10.3359375 C-0.71823326 6.88985095 -0.36158855 3.44470795 0 0 Z " fill="#101A26" transform="translate(333,110)"/>
<path d="M0 0 C3.37672201 3.15314909 6.02315263 6.64313925 8.625 10.4375 C9.01945313 10.99759766 9.41390625 11.55769531 9.8203125 12.13476562 C12.01359759 15.30984218 13.73201664 18.35284356 15 22 C9.82037158 18.36323962 5.30616083 14.44073082 0.8984375 9.90234375 C-1.59566266 7.4031117 -4.24444807 5.20444155 -7 3 C-2.84439769 3 -1.15900671 5.2820452 1.6875 8 C2.19861328 8.47695313 2.70972656 8.95390625 3.23632812 9.4453125 C4.49709484 10.62359915 5.74937686 11.81095253 7 13 C6.24203125 11.84371094 6.24203125 11.84371094 5.46875 10.6640625 C4.8190625 9.66117188 4.169375 8.65828125 3.5 7.625 C2.8503125 6.62726562 2.200625 5.62953125 1.53125 4.6015625 C0 2 0 2 0 0 Z " fill="#EDEDEC" transform="translate(542,635)"/>
<path d="M0 0 C3.99824088 3.66505414 6.60168569 7.11112852 9 12 C8.67 12.66 8.34 13.32 8 14 C7.01 12.68 6.02 11.36 5 10 C5 12.31 5 14.62 5 17 C3.14670366 14.22005549 2.31436395 12.21743449 1.375 9.0625 C1.11460937 8.20785156 0.85421875 7.35320313 0.5859375 6.47265625 C0 4 0 4 0 0 Z " fill="#202F3C" transform="translate(689,541)"/>
<path d="M0 0 C0.33 0 0.66 0 1 0 C1 10.23 1 20.46 1 31 C2.32 31.33 3.64 31.66 5 32 C1.0585998 33.03038433 -1.83615152 32.87693282 -5.8125 32.0625 C-7.27623047 31.77052734 -7.27623047 31.77052734 -8.76953125 31.47265625 C-9.50558594 31.31667969 -10.24164063 31.16070313 -11 31 C-11 30.67 -11 30.34 -11 30 C-9.741875 29.979375 -8.48375 29.95875 -7.1875 29.9375 C-6.47980469 29.92589844 -5.77210938 29.91429687 -5.04296875 29.90234375 C-3 30 -3 30 0 31 C0 20.77 0 10.54 0 0 Z " fill="#21323F" transform="translate(511,507)"/>
<path d="M0 0 C0.98934333 3.12275302 0.96501415 5.22144646 0.2578125 8.40625 C0.07863281 9.23253906 -0.10054687 10.05882812 -0.28515625 10.91015625 C-0.47980469 11.76480469 -0.67445313 12.61945313 -0.875 13.5 C-1.06191406 14.35464844 -1.24882813 15.20929688 -1.44140625 16.08984375 C-1.94875955 18.39632222 -2.46493488 20.69979873 -3 23 C-3.14453613 23.70962891 -3.28907227 24.41925781 -3.43798828 25.15039062 C-4 27 -4 27 -6 29 C-5.50725113 18.98077306 -2.67509007 9.61453037 0 0 Z " fill="#3A4F5B" transform="translate(661,243)"/>
<path d="M0 0 C0.66 0.33 1.32 0.66 2 1 C1.01 1.33 0.02 1.66 -1 2 C-1 2.99 -1 3.98 -1 5 C0.32 5.33 1.64 5.66 3 6 C0.71059044 6.38854209 -1.58164574 6.7604628 -3.875 7.125 C-5.78925781 7.43824219 -5.78925781 7.43824219 -7.7421875 7.7578125 C-9.35480469 7.87769531 -9.35480469 7.87769531 -11 8 C-11.66 7.34 -12.32 6.68 -13 6 C-11.96939453 5.60167969 -11.96939453 5.60167969 -10.91796875 5.1953125 C-10.01691406 4.84210937 -9.11585938 4.48890625 -8.1875 4.125 C-7.29417969 3.77695312 -6.40085937 3.42890625 -5.48046875 3.0703125 C-2.82288409 2.01167845 -2.82288409 2.01167845 0 0 Z " fill="#455663" transform="translate(562,866)"/>
<path d="M0 0 C0 5.28 0 10.56 0 16 C0.66 16.33 1.32 16.66 2 17 C-0.70879335 18.35439668 -3.00933268 18.06501451 -6 18 C-5.35546875 17.82726562 -4.7109375 17.65453125 -4.046875 17.4765625 C-1.59554118 16.07017372 -1.59554118 16.07017372 -1.390625 12.5234375 C-1.32418219 11.141427 -1.2780748 9.7583219 -1.25 8.375 C-1.22035156 7.66859375 -1.19070313 6.9621875 -1.16015625 6.234375 C-1.08944643 4.49019953 -1.04245965 2.74509173 -1 1 C-7.435 1.495 -7.435 1.495 -14 2 C-9.43362969 -1.04424687 -5.43284541 -0.12783166 0 0 Z " fill="#162634" transform="translate(512,632)"/>
<path d="M0 0 C0.66 0.33 1.32 0.66 2 1 C0.55367188 2.22976563 0.55367188 2.22976563 -0.921875 3.484375 C-2.1979923 4.57282799 -3.47402977 5.6613746 -4.75 6.75 C-5.70132812 7.55824219 -5.70132812 7.55824219 -6.671875 8.3828125 C-9.90758668 11.14664956 -13.04757267 13.92828267 -16 17 C-16.66 16.67 -17.32 16.34 -18 16 C-6.66287016 4.29384966 -6.66287016 4.29384966 0 0 Z " fill="#C0A689" transform="translate(494,656)"/>
<path d="M0 0 C0 4.26812584 -2.51391927 6.07790058 -5.3125 9 C-6.06176758 9.80050781 -6.06176758 9.80050781 -6.82617188 10.6171875 C-9.17607957 13.11960576 -11.55176266 15.59354146 -14 18 C-14.66 17.67 -15.32 17.34 -16 17 C-14.71520959 15.49410612 -13.42195918 13.99542625 -12.125 12.5 C-11.40570312 11.6646875 -10.68640625 10.829375 -9.9453125 9.96875 C-9.30335938 9.3190625 -8.66140625 8.669375 -8 8 C-7.34 8 -6.68 8 -6 8 C-5.7525 7.4225 -5.505 6.845 -5.25 6.25 C-3.83316683 3.6997003 -2.12372463 1.98214299 0 0 Z " fill="#3F525E" transform="translate(545,472)"/>
<path d="M0 0 C1.11375 0.598125 2.2275 1.19625 3.375 1.8125 C4.00148438 2.14894531 4.62796875 2.48539063 5.2734375 2.83203125 C7 4 7 4 9 7 C7.35 6.67 5.7 6.34 4 6 C4.598125 6.433125 5.19625 6.86625 5.8125 7.3125 C7.70783087 8.77461239 9.3528593 10.27050227 11 12 C6.38486888 10.68139111 2.90102388 8.78644563 -1 6 C-0.01 5.01 0.98 4.02 2 3 C1.34 2.67 0.68 2.34 0 2 C0 1.34 0 0.68 0 0 Z " fill="#C2C8CB" transform="translate(810,677)"/>
<path d="M0 0 C0.33 0 0.66 0 1 0 C1.80674061 3.57828496 2.1893828 6.95765945 2.25 10.625 C2.27578125 11.56601563 2.3015625 12.50703125 2.328125 13.4765625 C2 16 2 16 -1 19 C-0.67 12.73 -0.34 6.46 0 0 Z " fill="#C0C4C3" transform="translate(686,184)"/>
<path d="M0 0 C4.80172134 1.10808954 7.91161335 2.04686508 11 6 C11 6.66 11 7.32 11 8 C6.69235185 6.43358249 2.93828536 4.31663844 -1 2 C-0.67 1.34 -0.34 0.68 0 0 Z " fill="#B4BABF" transform="translate(814,682)"/>
<path d="M0 0 C2.83022097 3.99560608 1.76210446 7.42737323 1 12 C0.34 12 -0.32 12 -1 12 C-1.08159574 7.83861737 -0.98248524 4.0527516 0 0 Z " fill="#1A2732" transform="translate(266,489)"/>
<path d="M0 0 C0.66 0 1.32 0 2 0 C1.34 3.96 0.68 7.92 0 12 C-2 9 -2 9 -2 5 C-1.34 5 -0.68 5 0 5 C0 3.35 0 1.7 0 0 Z " fill="#E5E5E2" transform="translate(255,552)"/>
<path d="M0 0 C2.475 0.495 2.475 0.495 5 1 C5 1.99 5 2.98 5 4 C4.01 4.495 4.01 4.495 3 5 C2.34 5.99 1.68 6.98 1 8 C0.67 5.36 0.34 2.72 0 0 Z " fill="#B69F85" transform="translate(347,650)"/>
<path d="M0 0 C2.475 0.99 2.475 0.99 5 2 C3.69593116 4.01920337 2.36176581 6.01924973 1 8 C0.67 8 0.34 8 0 8 C0 5.36 0 2.72 0 0 Z " fill="#F1E1C2" transform="translate(512,649)"/>
<path d="M0 0 C0.33 0.66 0.66 1.32 1 2 C-1.3125 4.5 -1.3125 4.5 -4 7 C-4.99 7 -5.98 7 -7 7 C-4.69 4.69 -2.38 2.38 0 0 Z " fill="#364C5C" transform="translate(630,812)"/>
<path d="M0 0 C0.99 0.99 1.98 1.98 3 3 C-0.63 2.67 -4.26 2.34 -8 2 C-4.76746204 -0.15502531 -3.74849077 -0.46856135 0 0 Z " fill="#EEEDEC" transform="translate(382,630)"/>
<path d="M0 0 C3.99455527 0.61454696 6.74466336 2.70646737 10 5 C9.01 5.33 8.02 5.66 7 6 C5.17578125 5.0390625 5.17578125 5.0390625 3.3125 3.625 C2.68988281 3.16351562 2.06726563 2.70203125 1.42578125 2.2265625 C0.95527344 1.82179688 0.48476563 1.41703125 0 1 C0 0.67 0 0.34 0 0 Z " fill="#E9EAE8" transform="translate(417,855)"/>
</svg>
